# xmcd
#
# Track frame offsets:
# 150
# 8368
# 17582
# 70830
# 86850
# 95584
# 103409
# 108763
# 146559
# 175033
# 195287
# 210678
# 244803
# 273277
# 293531
# 317682
#
# Disc length: 4459 seconds
#
# Revision: 0
# Processed by: cddbd v1.4PL0 Copyright (c) Steve Scherf et al.
# Submitted via: Audion 3.0.2 (http://www.panic.com/audion/)
#
DISCID=d2116910
DTITLE=klfb - Youp
DYEAR=1900
DGENRE=
TTITLE0=ih
TTITLE1=i
TTITLE2=hui
TTITLE3=h
TTITLE4=uu
TTITLE5=hi
TTITLE6=uh
TTITLE7=i
TTITLE8=uhi
TTITLE9=uh
TTITLE10=iuh
TTITLE11=iu
TTITLE12=hiu
TTITLE13=hi
TTITLE14=hu
TTITLE15=h
EXTD=
EXTT0=
EXTT1=
EXTT2=
EXTT3=
EXTT4=
EXTT5=
EXTT6=
EXTT7=
EXTT8=
EXTT9=
EXTT10=
EXTT11=
EXTT12=
EXTT13=
EXTT14=
EXTT15=
PLAYORDER=
